PathFileType	4	(X/Y/Z)	/Users/itak/Documents/Research/Walk-IL/dataset/trc/00255_00009.trc
DataRate	CameraRate	NumFrames	NumMarkers	Units	OrigDataRate	OrigDataStartFrame	OrigNumFrames
100.000000	100.000000	4	53	mm	100.000000	136	546
Frame#	Time	RPSI			LPSI			L3			STRN			T10			C7			CLAV			RBAK			LBAK			LSHO			LUPA			LAEL			LAOL			LWTS			LWPS			LFRA			LIFD			LHPS			LHTS			RSHO			RUPA			RAEL			RAOL			RWTS			RWPS			RFRA			RIFD			RHTS			RHPS			RBHD			LFHD			RFHD			LBHD			LHIP			RHIP			RASI			LASI			LKNE			LTHI			LANK			LTIP			LTOE			LMT1			LMT5			LHEE			RKNE			RTHI			RANK			RTIP			RTOE			RMT1			RMT5			RHEE			
		X1	Y1	Z1	X2	Y2	Z2	X3	Y3	Z3	X4	Y4	Z4	X5	Y5	Z5	X6	Y6	Z6	X7	Y7	Z7	X8	Y8	Z8	X9	Y9	Z9	X10	Y10	Z10	X11	Y11	Z11	X12	Y12	Z12	X13	Y13	Z13	X14	Y14	Z14	X15	Y15	Z15	X16	Y16	Z16	X17	Y17	Z17	X18	Y18	Z18	X19	Y19	Z19	X20	Y20	Z20	X21	Y21	Z21	X22	Y22	Z22	X23	Y23	Z23	X24	Y24	Z24	X25	Y25	Z25	X26	Y26	Z26	X27	Y27	Z27	X28	Y28	Z28	X29	Y29	Z29	X30	Y30	Z30	X31	Y31	Z31	X32	Y32	Z32	X33	Y33	Z33	X34	Y34	Z34	X35	Y35	Z35	X36	Y36	Z36	X37	Y37	Z37	X38	Y38	Z38	X39	Y39	Z39	X40	Y40	Z40	X41	Y41	Z41	X42	Y42	Z42	X43	Y43	Z43	X44	Y44	Z44	X45	Y45	Z45	X46	Y46	Z46	X47	Y47	Z47	X48	Y48	Z48	X49	Y49	Z49	X50	Y50	Z50	X51	Y51	Z51	X52	Y52	Z52	X53	Y53	Z53	

137	1.36	-1516.145629882812	1056.736083984375	-305.3273620605469	-1509.912719726562	1062.9208984375	-426.0386047363281	-1513.663452148438	1141.339599609375	-385.4166259765625	-1258.776977539062	1315.213989257812	-381.3114929199219	-1515.962646484375	1267.107055664062	-382.6201477050781	-1440.158813476562	1524.864868164062	-389.3455200195312	-1277.612060546875	1434.584716796875	-383.3855590820312	-1523.216430664062	1391.919067382812	-313.3876953125	-1461.049194335938	1486.968505859375	-500.8356323242188	-1370.378540039062	1481.65283203125	-554.8843383789062	-1402.727661132812	1362.648193359375	-631.2152099609375	-1393.278076171875	1151.000732421875	-653.4527587890625	-1469.2509765625	1138.811401367188	-612.1300048828125	-1321.587158203125	912.4542236328125	-583.6322021484375	-1338.26708984375	897.1204833984375	-665.4700927734375	-1374.4658203125	1042.781005859375	-663.3240356445312	-1330.403198242188	720.8756103515625	-588.9683837890625	-1327.226440429688	807.8276977539062	-658.7815551757812	-1289.737548828125	810.6669311523438	-600.3695068359375	-1386.505737304688	1488.695068359375	-217.2940216064453	-1408.946533203125	1427.18798828125	-147.990234375	-1438.834228515625	1145.132446289062	-106.6889877319336	-1476.43115234375	1141.191650390625	-194.2449645996094	-1316.785400390625	923.4193115234375	-159.0865936279297	-1366.657836914062	911.177734375	-90.95298767089844	-1415.3583984375	1074.99951171875	-95.75737762451172	-1312.870483398438	728.1410522460938	-166.5108337402344	-1284.495483398438	800.37939453125	-148.0239715576172	-1333.51806640625	801.9811401367188	-94.82499694824219	-1393.297729492188	1678.76806640625	-345.4024963378906	-1183.097045898438	1709.460815429688	-427.4770202636719	-1190.17529296875	1709.702392578125	-327.8502197265625	-1338.901245117188	1681.792236328125	-474.7004699707031	-1405.12841796875	995.5842895507812	-561.7161254882812	-1426.818237304688	1012.171997070312	-193.0870513916016	-1324.675537109375	1051.489379882812	-228.0799102783203	-1304.736694335938	1030.86669921875	-509.054443359375	-1373.014892578125	508.1336059570312	-517.344970703125	-1375.52294921875	651.7894287109375	-549.5546264648438	-1484.013793945312	38.6963005065918	-518.95703125	-1434.344848632812	287.0036315917969	-528.7476196289062	-1277.013061523438	47.64926910400391	-442.6239013671875	-1348.766479492188	43.46396255493164	-405.5080871582031	-1354.78857421875	38.31506729125977	-523.599853515625	-1550.887817382812	45.85371017456055	-473.6800231933594	-1410.303100585938	515.3754272460938	-244.7209625244141	-1379.21044921875	781.4576416015625	-190.1737365722656	-1497.085083007812	39.42412185668945	-288.2944946289062	-1408.92529296875	399.0704956054688	-266.8690795898438	-1285.735961914062	46.94551467895508	-330.4939270019531	-1341.87939453125	41.56808090209961	-374.1205139160156	-1387.396850585938	41.8748664855957	-262.6747741699219	-1559.749267578125	35.47063827514648	-345.5715026855469	
138	1.37	-1515.099487304688	1056.824462890625	-304.1555786132812	-1509.135986328125	1063.151733398438	-424.85595703125	-1512.642578125	1141.504272460938	-384.1690063476562	-1257.497436523438	1314.905029296875	-380.4807434082031	-1514.749389648438	1267.28955078125	-381.2734069824219	-1438.472045898438	1524.903930664062	-387.988037109375	-1276.043579101562	1434.343872070312	-382.4448547363281	-1521.592651367188	1392.043334960938	-311.880615234375	-1459.637084960938	1487.152709960938	-499.5045776367188	-1369.0615234375	1481.710205078125	-553.712158203125	-1401.826904296875	1362.799682617188	-630.0562744140625	-1392.976196289062	1151.14404296875	-652.3450927734375	-1468.84716796875	1139.12109375	-610.8007202148438	-1321.452880859375	912.3521118164062	-582.8451538085938	-1338.534790039062	897.18212890625	-664.6412963867188	-1374.427001953125	1042.895141601562	-662.32568359375	-1330.817993164062	720.8939208984375	-588.3408813476562	-1327.665771484375	807.829833984375	-658.0071411132812	-1289.946533203125	810.5843505859375	-599.735107421875	-1384.421508789062	1488.504272460938	-216.1402893066406	-1406.820556640625	1427.041381835938	-146.7366790771484	-1436.923583984375	1145.036376953125	-105.3553924560547	-1474.804931640625	1141.13232421875	-192.8099670410156	-1315.271362304688	923.1658935546875	-158.1121673583984	-1365.02978515625	910.982666015625	-89.82275390625	-1413.505615234375	1074.87109375	-94.50102233886719	-1311.719604492188	727.8948364257812	-165.4831237792969	-1283.169921875	800.054931640625	-147.1249389648438	-1332.001098632812	801.7550048828125	-93.78527069091797	-1391.225830078125	1678.689086914062	-344.0687866210938	-1181.053466796875	1708.94873046875	-426.4768981933594	-1187.980834960938	1709.1787109375	-326.8411560058594	-1337.006469726562	1681.6513671875	-473.4648742675781	-1404.843017578125	995.6396484375	-560.73095703125	-1425.662719726562	1011.919250488281	-192.1606750488281	-1323.49267578125	1051.141235351562	-227.2900543212891	-1304.081787109375	1030.796508789062	-508.4050903320312	-1371.1279296875	508.1709289550781	-516.8884887695312	-1374.53369140625	651.7802734375	-549.009033203125	-1483.997314453125	38.80186080932617	-518.85498046875	-1433.348266601562	287.09228515625	-528.3876953125	-1276.9970703125	47.69273376464844	-442.7303466796875	-1348.779907226562	43.60535049438477	-405.5964965820312	-1354.789916992188	38.29978942871094	-523.6082153320312	-1550.81298828125	46.12352752685547	-473.6405944824219	-1409.79833984375	515.1033325195312	-244.1522064208984	-1378.45068359375	781.1962890625	-189.4559783935547	-1497.104125976562	39.34316253662109	-288.1905212402344	-1408.540649414062	398.8264770507812	-266.40234375	-1285.813842773438	46.96013259887695	-330.5290222167969	-1341.976196289062	41.56553268432617	-374.1251831054688	-1387.415405273438	41.84762573242188	-262.6500244140625	-1559.774169921875	35.28325271606445	-345.3414001464844	
139	1.38	-1514.020629882812	1056.897827148438	-302.9983215332031	-1508.346801757812	1063.346435546875	-423.6863708496094	-1511.605224609375	1141.653930664062	-382.9320068359375	-1256.21240234375	1314.560791015625	-379.6733093261719	-1513.50830078125	1267.455078125	-379.9402770996094	-1436.768676757812	1524.91943359375	-386.6351623535156	-1274.4716796875	1434.095825195312	-381.5096435546875	-1519.946533203125	1392.142700195312	-310.3860473632812	-1458.210693359375	1487.330688476562	-498.1721496582031	-1367.725952148438	1481.76904296875	-552.5502319335938	-1400.916259765625	1362.9580078125	-628.9120483398438	-1392.6875	1151.291381835938	-651.2379150390625	-1468.44873046875	1139.438842773438	-609.454345703125	-1321.159545898438	912.3538818359375	-582.04296875	-1338.794311523438	897.2576293945312	-663.7830200195312	-1374.4013671875	1043.011474609375	-661.3195190429688	-1331.14111328125	720.9314575195312	-587.7053833007812	-1328.076049804688	807.8548583984375	-657.1873779296875	-1290.066162109375	810.5203247070312	-599.0910034179688	-1382.376708984375	1488.32470703125	-214.9614868164062	-1404.682373046875	1426.872192382812	-145.5001220703125	-1434.988159179688	1144.923583984375	-104.0193252563477	-1473.151611328125	1141.046264648438	-191.3752746582031	-1313.715698242188	922.9039916992188	-157.1083679199219	-1363.346069335938	910.7799682617188	-88.67127227783203	-1411.609008789062	1074.727172851562	-93.22940826416016	-1310.485961914062	727.655517578125	-164.4196472167969	-1281.75439453125	799.7243041992188	-146.2024993896484	-1330.408935546875	801.516357421875	-92.72518157958984	-1389.143676757812	1678.595458984375	-342.7341613769531	-1178.979736328125	1708.423583984375	-425.4519958496094	-1185.773071289062	1708.622802734375	-325.8034362792969	-1335.0810546875	1681.496459960938	-472.21435546875	-1404.572631835938	995.654541015625	-559.7692260742188	-1424.472534179688	1011.662902832031	-191.2596740722656	-1322.278076171875	1050.78369140625	-226.5138092041016	-1303.35888671875	1030.751586914062	-507.8347778320312	-1368.928100585938	508.1830749511719	-516.4189453125	-1373.327026367188	651.7384643554688	-548.4366455078125	-1483.9677734375	38.92852020263672	-518.7410278320312	-1432.178100585938	287.1767883300781	-528.0306396484375	-1276.96630859375	47.72561264038086	-442.839111328125	-1348.772827148438	43.75400924682617	-405.6968688964844	-1354.78857421875	38.27642059326172	-523.62451171875	-1550.708618164062	46.45419311523438	-473.5845642089844	-1409.20947265625	514.8163452148438	-243.6121063232422	-1377.6103515625	780.9354858398438	-188.7776336669922	-1497.125122070312	39.2752685546875	-288.1035461425781	-1408.107177734375	398.5815124511719	-265.9508361816406	-1285.882690429688	46.96984481811523	-330.5639038085938	-1342.056884765625	41.55413818359375	-374.1311950683594	-1387.4306640625	41.82403564453125	-262.6295471191406	-1559.813720703125	35.14635467529297	-345.1380310058594	
140	1.39	-1512.909790039062	1056.944091796875	-301.8589782714844	-1507.544921875	1063.491821289062	-422.5335083007812	-1510.552734375	1141.78271484375	-381.7099914550781	-1254.910400390625	1314.185424804688	-378.8971557617188	-1512.235595703125	1267.598754882812	-378.6261596679688	-1435.048950195312	1524.908203125	-385.2911071777344	-1272.892822265625	1433.8349609375	-380.5892639160156	-1518.277954101562	1392.212280273438	-308.9103393554688	-1456.768432617188	1487.49853515625	-496.8440856933594	-1366.372924804688	1481.82373046875	-551.4041137695312	-1399.999755859375	1363.118530273438	-627.7869262695312	-1392.420288085938	1151.439819335938	-650.1421508789062	-1468.062377929688	1139.759643554688	-608.0978393554688	-1320.756225585938	912.4517211914062	-581.224853515625	-1339.051147460938	897.3394775390625	-662.9016723632812	-1374.395629882812	1043.125	-660.3132934570312	-1331.3837890625	720.9906616210938	-587.0503540039062	-1328.451171875	807.8987426757812	-656.3222045898438	-1290.107421875	810.4768676757812	-598.4278564453125	-1380.356689453125	1488.141967773438	-213.7731628417969	-1402.533569335938	1426.674194335938	-144.2859039306641	-1433.024780273438	1144.786254882812	-102.6823883056641	-1471.46484375	1140.925415039062	-189.9433441162109	-1312.124389648438	922.6180419921875	-156.0813446044922	-1361.602905273438	910.5614013671875	-87.49874114990234	-1409.672119140625	1074.560791015625	-91.94580841064453	-1309.161499023438	727.4032592773438	-163.328125	-1280.265258789062	799.3753051757812	-145.2594146728516	-1328.745727539062	801.2557373046875	-91.64363861083984	-1387.050537109375	1678.477172851562	-341.403076171875	-1176.882202148438	1707.887329101562	-424.4010314941406	-1183.563720703125	1708.03076171875	-324.7329406738281	-1333.127685546875	1681.326416015625	-470.9541015625	-1404.317016601562	995.6245727539062	-558.8385620117188	-1423.244384765625	1011.400817871094	-190.380859375	-1321.024291992188	1050.4228515625	-225.7501373291016	-1302.52392578125	1030.7578125	-507.3512878417969	-1366.422241210938	508.1699523925781	-515.93505859375	-1371.891723632812	651.6663818359375	-547.8317260742188	-1483.919677734375	39.08152770996094	-518.61279296875	-1430.840087890625	287.264892578125	-527.6814575195312	-1276.918090820312	47.75033187866211	-442.9534301757812	-1348.740356445312	43.9079475402832	-405.80908203125	-1354.78271484375	38.24321746826172	-523.6497802734375	-1550.571899414062	46.84352874755859	-473.507568359375	-1408.561767578125	514.5147094726562	-243.1007232666016	-1376.694946289062	780.6696166992188	-188.1358947753906	-1497.147583007812	39.21910858154297	-288.0305480957031	-1407.635864257812	398.3382873535156	-265.516357421875	-1285.9404296875	46.97333908081055	-330.5985107421875	-1342.123413085938	41.53562927246094	-374.1400451660156	-1387.443115234375	41.80464553833008	-262.6138610839844	-1559.863525390625	35.05565643310547	-344.9658203125	
